<svg id="Слой_1" data-name="Слой 1" xmlns="http://www.w3.org/2000/svg" viewBox="0 0 200 200"><defs><style>.cls-1{fill:#ff0703;}.cls-2{fill:#ffc400;}.cls-3{fill:#ff751f;}.cls-4{fill:#ffeb36;}.cls-5{fill:#ffec4a;}.cls-6{fill:#fff;}</style></defs><path class="cls-1" d="M98.89,178.47a68.63,68.63,0,0,1-25.81-5.21c-13.58-5.53-24.73-14.78-31.39-26-6.79-11.47-8.14-23.65-3.8-34.32h0L49,85.56h0a31.62,31.62,0,0,1,1.91-3.93A2.38,2.38,0,0,1,55.08,84a29.82,29.82,0,0,0-1.63,3.37c-3.77,9.25-2.53,19.93,3.47,30.09,6.14,10.37,16.47,18.9,29.09,24s26,6.25,37.61,3.11c11.39-3.06,19.74-9.84,23.51-19.09a2.39,2.39,0,1,1,4.42,1.8l-11.14,27.35h0c-4.34,10.66-13.82,18.44-26.68,21.91A57.39,57.39,0,0,1,98.89,178.47ZM110,151.12v0l-9.17,22.51A52,52,0,0,0,112.48,172c11.4-3.07,19.74-9.85,23.51-19.1h0l4.57-11.22a44.23,44.23,0,0,1-15.7,7.58A56.91,56.91,0,0,1,110,151.12Zm-53.2,6.72a66.45,66.45,0,0,0,38.9,15.77l9.24-22.69A71.5,71.5,0,0,1,66,135.14ZM42.32,114.7h0c-3.76,9.25-2.53,19.93,3.48,30.09a51.39,51.39,0,0,0,7.29,9.51l9.18-22.54a57.81,57.81,0,0,1-9.44-11.89,44.32,44.32,0,0,1-5.94-16.39Zm106.87-2.3a36.66,36.66,0,0,0-2.95-11.89,2.38,2.38,0,1,1,4.38-1.88A41.1,41.1,0,0,1,154,112.08a2.39,2.39,0,0,1-4.76.32ZM62.52,74.76a2.39,2.39,0,0,1-1.4-4.32C100.21,42.31,146.71,91.8,144.86,91a2.39,2.39,0,0,1-1.8,4.43c3.63,1.47-41.58-48.18-79.15-21.16A2.4,2.4,0,0,1,62.52,74.76Z"/><path class="cls-2" d="M104.41,124.65a2.39,2.39,0,0,1-.14-4.77l83.62-5a2.44,2.44,0,0,1,2.53,2.24,2.4,2.4,0,0,1-2.25,2.53l-83.62,5ZM78.2,112.86,28.57,38.26a2.39,2.39,0,0,1,4-2.65l49.64,74.61a2.39,2.39,0,1,1-4,2.64Z"/><path class="cls-3" d="M110,150.17A67.79,67.79,0,0,1,84.57,145c-13.39-5.45-24.37-14.56-30.93-25.64s-8-23.09-3.73-33.47a32.62,32.62,0,0,1,1.85-3.81,1.43,1.43,0,1,1,2.49,1.41A28.5,28.5,0,0,0,52.57,87c-3.89,9.54-2.63,20.52,3.53,30.94s16.74,19.22,29.55,24.44,26.38,6.33,38.22,3.15c11.69-3.15,20.26-10.13,24.14-19.66a1.43,1.43,0,1,1,2.65,1.08c-4.22,10.38-13.48,18-26,21.34A55.8,55.8,0,0,1,110,150.17Z"/><path class="cls-3" d="M150.14,112.34a37.29,37.29,0,0,0-3-12.21A1.44,1.44,0,0,1,149.75,99,40.34,40.34,0,0,1,153,112.15a1.43,1.43,0,0,1-2.86.19Z"/><path class="cls-3" d="M62.52,73.8a1.43,1.43,0,0,1-.84-2.59C100.28,43.43,147,92.93,144.5,91.93a1.44,1.44,0,0,1,.79,1.87,1.42,1.42,0,0,1-1.87.78c3.34,1.36-42.26-48.25-80.07-21A1.41,1.41,0,0,1,62.52,73.8Z"/><path class="cls-3" d="M98.89,177.52a67.75,67.75,0,0,1-25.45-5.14c-13.39-5.45-24.38-14.56-30.93-25.64s-8-23.09-3.73-33.47a1.43,1.43,0,1,1,2.65,1.08c-3.88,9.53-2.62,20.52,3.54,30.93s16.73,19.23,29.55,24.45,26.38,6.33,38.22,3.15c11.68-3.15,20.25-10.13,24.13-19.67a1.44,1.44,0,0,1,2.66,1.09c-4.23,10.38-13.48,18-26.06,21.34A55.78,55.78,0,0,1,98.89,177.52Z"/><path class="cls-3" d="M40.1,115.24a1.51,1.51,0,0,1-.54-.1,1.44,1.44,0,0,1-.78-1.87L49.91,85.92A1.44,1.44,0,0,1,52.57,87L41.43,114.35A1.44,1.44,0,0,1,40.1,115.24Z"/><path class="cls-3" d="M138.2,155.19a1.49,1.49,0,0,1-.54-.11,1.43,1.43,0,0,1-.79-1.87L148,125.87a1.43,1.43,0,1,1,2.65,1.08L139.53,154.3A1.44,1.44,0,0,1,138.2,155.19Z"/><path class="cls-3" d="M65.81,133.17,55.69,158a1.45,1.45,0,0,1-1.33.89,1.35,1.35,0,0,1-.55-.11A1.42,1.42,0,0,1,53,157l10.49-25.77Z"/><path class="cls-3" d="M109.47,149.89,99,175.67a1.43,1.43,0,0,1-1.33.9,1.48,1.48,0,0,1-.53-.11,1.44,1.44,0,0,1-.79-1.87l10.13-24.87Z"/><path class="cls-4" d="M110,149.21a66.89,66.89,0,0,1-25.09-5.06c-13.19-5.38-24-14.34-30.47-25.24s-7.78-22.53-3.67-32.63a30.86,30.86,0,0,1,1.81-3.7.47.47,0,0,1,.65-.18.47.47,0,0,1,.17.65,31.21,31.21,0,0,0-1.74,3.59c-4,9.82-2.71,21.1,3.6,31.78s17,19.55,30,24.84,26.79,6.43,38.83,3.19S144.9,136,148.89,126.23a.48.48,0,0,1,.89.36c-4.11,10.09-13.14,17.47-25.42,20.78A54.85,54.85,0,0,1,110,149.21Z"/><path class="cls-4" d="M151.09,112.28A38,38,0,0,0,148,99.76a.48.48,0,0,1,.88-.38,39.42,39.42,0,0,1,3.18,12.83.49.49,0,0,1-.45.51A.48.48,0,0,1,151.09,112.28Z"/><path class="cls-4" d="M62.52,72.85a.48.48,0,0,1-.29-.86c38.36-27.59,84.65,21.94,81.91,20.82a.48.48,0,0,1-.36.89c3,1.23-42.91-48.33-81-20.94A.46.46,0,0,1,62.52,72.85Z"/><path class="cls-4" d="M98.89,176.57a66.69,66.69,0,0,1-25.09-5.08c-13.2-5.37-24-14.33-30.47-25.23s-7.78-22.53-3.67-32.63a.48.48,0,0,1,.62-.26.47.47,0,0,1,.26.62c-4,9.81-2.71,21.1,3.61,31.78s17,19.54,30,24.84S100.94,177,113,173.8s20.78-10.41,24.78-20.22a.47.47,0,0,1,.62-.26.48.48,0,0,1,.27.62c-4.12,10.1-13.15,17.47-25.42,20.78A55.33,55.33,0,0,1,98.89,176.57Z"/><path class="cls-4" d="M40.1,114.29a.33.33,0,0,1-.17,0,.47.47,0,0,1-.27-.62L50.79,86.28a.49.49,0,0,1,.63-.26.48.48,0,0,1,.26.63L40.54,114A.46.46,0,0,1,40.1,114.29Z"/><path class="cls-4" d="M138.2,154.23a.57.57,0,0,1-.18,0,.47.47,0,0,1-.26-.62l11.13-27.35a.48.48,0,0,1,.89.36l-11.13,27.35A.5.5,0,0,1,138.2,154.23Z"/><path class="cls-4" d="M53.84,158.77a.51.51,0,0,1-.27-.63l11-27a.48.48,0,0,1,.62-.26.48.48,0,0,1,.27.62l-11,27A.48.48,0,0,1,53.84,158.77Z"/><path class="cls-4" d="M97.2,176.23a.47.47,0,0,1-.26-.62l11-26.89a.48.48,0,0,1,.62-.26.48.48,0,0,1,.27.62L97.83,176A.49.49,0,0,1,97.2,176.23Z"/><path class="cls-5" d="M79,112.33,29.36,37.73a1.44,1.44,0,1,1,2.39-1.59l49.63,74.61A1.43,1.43,0,1,1,79,112.33Z"/><path class="cls-5" d="M104.41,123.7a1.43,1.43,0,0,1-.08-2.86l83.62-5a1.4,1.4,0,0,1,1.51,1.35,1.43,1.43,0,0,1-1.34,1.52l-83.62,5Z"/><path class="cls-6" d="M79.79,111.8,30.15,37.2a.48.48,0,0,1,.14-.66.47.47,0,0,1,.66.13l49.64,74.6a.5.5,0,0,1-.13.67A.49.49,0,0,1,79.79,111.8Z"/><path class="cls-6" d="M104.41,122.74a.48.48,0,0,1,0-.95l83.62-5h0a.48.48,0,0,1,0,.95l-83.62,5Z"/></svg>